<svg width="20" height="18" viewBox="0 0 20 18" fill="none" xmlns="http://www.w3.org/2000/svg"><path d="M19.94 8.23C19.57 5.76 17.32 4 14.82 4h-2.87c-.52 0-.95.43-.95.95s.43.95.95.95h2.9c1.6 0 3.04 1.14 3.22 2.73.17 1.43-.64 2.69-1.85 3.22l1.4 1.4c1.63-1.02 2.64-2.91 2.32-5.02ZM2.12.56A.996.996 0 1 0 .71 1.97l2.4 2.4C1.17 5.17-.16 7.14.02 9.41.23 12.05 2.59 14 5.23 14h2.82c.52 0 .95-.43.95-.95s-.43-.95-.95-.95H5.16c-1.63 0-3.1-1.19-3.25-2.82a3.095 3.095 0 0 1 2.75-3.35l2.1 2.1c-.43.09-.76.46-.76.92v.1c0 .52.43.95.95.95h1.78L11 12.27V14h1.73l3.3 3.3a.996.996 0 1 0 1.41-1.41L2.12.56ZM14 8.95c0-.52-.43-.95-.95-.95h-.66l1.49 1.49c.07-.13.12-.28.12-.44v-.1Z" fill="#fff"/></svg>